<?xml version="1.0" standalone="no"?>
<!DOCTYPE svg PUBLIC "-//W3C//DTD SVG 20010904//EN"
 "http://www.w3.org/TR/2001/REC-SVG-20010904/DTD/svg10.dtd">
<svg version="1.0" xmlns="http://www.w3.org/2000/svg"
 width="916.000000pt" height="916.000000pt" viewBox="0 0 916.000000 916.000000"
 preserveAspectRatio="xMidYMid meet">
<metadata>
Created by potrace 1.14, written by Peter Selinger 2001-2017
</metadata>
<g transform="translate(0.000000,916.000000) scale(0.100000,-0.100000)"
fill="#000000" stroke="none">
<path d="M5905 9051 c-38 -20 -113 -60 -165 -88 -52 -28 -124 -66 -160 -85
-36 -19 -101 -54 -145 -78 -182 -96 -231 -123 -242 -133 -7 -5 -13 -6 -13 -2
0 5 -8 2 -17 -6 -10 -8 -61 -37 -113 -64 -52 -26 -97 -51 -100 -54 -3 -3 -43
-25 -90 -48 -47 -24 -121 -62 -165 -86 -44 -24 -129 -69 -190 -102 -60 -32
-124 -66 -140 -75 -48 -27 -171 -93 -280 -150 -55 -29 -122 -65 -150 -80 -27
-15 -84 -45 -125 -67 -41 -23 -102 -56 -135 -73 -33 -18 -91 -50 -130 -70 -38
-21 -99 -53 -135 -72 -65 -35 -84 -58 -94 -111 -3 -15 -12 -54 -21 -85 -10
-31 -19 -64 -21 -72 -4 -21 -109 -406 -140 -520 -9 -30 -17 -62 -19 -70 -8
-39 -37 -147 -42 -160 -3 -8 -7 -19 -8 -25 -2 -5 -8 -30 -15 -55 -7 -25 -14
-52 -16 -60 -2 -8 -10 -40 -19 -70 -9 -30 -18 -62 -20 -71 -2 -10 -29 -111
-60 -225 -31 -115 -58 -216 -61 -224 -2 -8 -8 -32 -14 -52 -5 -21 -15 -55 -20
-75 -16 -58 -21 -76 -26 -102 -3 -14 -7 -29 -10 -33 -3 -5 -8 -24 -11 -41 -3
-18 -12 -52 -20 -76 -8 -24 -16 -52 -18 -64 -3 -11 -12 -45 -21 -76 -9 -31
-18 -64 -20 -74 -1 -10 -13 -52 -24 -95 -12 -42 -24 -88 -26 -101 -3 -13 -9
-31 -13 -40 -5 -9 -9 -19 -10 -23 -1 -5 -1 -9 -2 -10 0 -2 -2 -11 -4 -20 -8
-44 -40 -164 -45 -168 -3 -3 -6 -12 -6 -20 -1 -8 -38 -152 -83 -320 -45 -168
-84 -315 -87 -327 -2 -12 -9 -35 -15 -50 -6 -16 -10 -29 -10 -30 1 -2 1 -4 0
-5 -1 -5 -8 -32 -12 -53 -3 -11 -17 -63 -31 -115 -15 -52 -29 -103 -31 -112
-2 -10 -18 -71 -35 -135 -18 -65 -33 -125 -35 -133 -2 -8 -22 -82 -45 -165
-23 -82 -43 -161 -46 -175 -3 -13 -21 -81 -41 -150 -19 -69 -37 -134 -39 -145
-9 -48 -13 -62 -23 -87 -6 -16 -8 -28 -6 -28 3 0 -2 -17 -9 -37 -15 -39 -46
-156 -62 -232 -3 -14 -7 -28 -10 -33 -3 -4 -7 -16 -9 -25 -2 -10 -16 -63 -30
-118 -33 -125 -30 -112 -60 -225 -14 -52 -27 -102 -29 -110 -2 -8 -11 -42 -20
-75 -9 -33 -19 -68 -21 -77 -9 -41 -79 -299 -95 -353 -5 -16 -11 -41 -14 -55
-3 -14 -13 -52 -22 -85 -9 -33 -18 -67 -19 -75 -2 -8 -4 -17 -6 -20 -1 -3 -3
-9 -4 -15 -1 -5 -9 -37 -19 -70 -10 -33 -19 -67 -21 -75 -2 -8 -13 -51 -24
-95 -43 -160 -44 -180 -10 -206 13 -10 35 -19 49 -20 28 -1 46 -3 110 -14 25
-4 56 -9 70 -11 14 -2 61 -10 105 -19 44 -8 94 -17 110 -20 17 -2 41 -7 55
-10 14 -3 39 -7 55 -10 17 -3 41 -8 55 -10 32 -7 47 -9 150 -29 98 -18 127
-23 156 -30 12 -2 39 -7 60 -10 22 -4 46 -8 54 -11 8 -2 33 -7 55 -10 22 -4
49 -8 60 -10 26 -5 272 -53 305 -60 14 -3 39 -7 55 -10 39 -6 77 -13 145 -27
30 -6 64 -12 75 -14 11 -2 29 -5 40 -7 11 -3 40 -8 65 -13 25 -4 47 -8 50 -9
18 -4 98 -18 110 -20 9 0 21 -4 28 -9 6 -4 12 -5 12 -3 0 3 33 -2 73 -10 102
-20 107 -21 152 -28 22 -3 57 -10 77 -16 20 -5 40 -9 45 -8 4 1 10 1 13 -1 3
-1 16 -3 30 -6 14 -2 45 -8 70 -13 25 -6 95 -19 155 -30 126 -23 140 -26 215
-40 30 -6 69 -13 85 -16 17 -2 41 -7 55 -10 42 -8 173 -33 215 -41 22 -4 47
-9 55 -11 8 -1 29 -5 45 -7 17 -3 42 -7 55 -10 14 -3 39 -8 55 -11 49 -9 209
-39 255 -49 14 -2 41 -7 60 -10 19 -3 46 -8 60 -11 33 -7 68 -14 105 -20 17
-3 68 -13 115 -21 47 -9 95 -18 108 -20 12 -2 34 -6 50 -10 15 -3 41 -7 57
-10 59 -10 71 -12 115 -22 25 -6 63 -13 85 -16 22 -4 48 -9 58 -12 12 -4 20 2
26 18 8 19 9 1372 1 1403 -1 6 -1 13 0 18 4 16 3 88 -2 92 -3 3 -2 25 2 50 4
25 5 47 2 50 -3 2 -6 174 -8 382 -5 692 -22 2342 -30 2993 -3 256 -5 476 -4
490 1 14 2 30 1 35 0 6 -2 197 -5 425 -5 388 -8 612 -21 1890 -5 474 -13 1146
-15 1183 0 23 -14 20 -95 -22z"/>
<path d="M6341 9062 c-10 -18 -8 -563 4 -1687 3 -297 8 -733 10 -970 3 -236 7
-653 10 -925 3 -272 7 -713 10 -980 3 -267 7 -732 11 -1035 3 -302 7 -715 8
-916 2 -201 6 -371 10 -377 3 -6 3 -13 -2 -15 -4 -3 -6 -21 -5 -41 2 -20 4
-52 6 -71 1 -19 -1 -35 -6 -35 -4 0 -5 -5 -2 -11 4 -5 8 -173 10 -372 10 -934
20 -1343 37 -1515 1 -9 9 -11 22 -7 12 3 30 7 41 9 11 2 67 16 125 30 58 15
112 29 120 31 8 2 53 13 100 25 47 12 90 23 95 24 6 1 19 5 30 9 11 3 31 8 45
11 14 3 79 19 145 37 66 17 127 32 135 34 8 2 15 4 15 5 0 1 7 3 15 5 8 1 44
11 80 20 36 9 74 19 85 22 31 7 36 8 97 26 l56 17 -4 133 c-2 72 -6 188 -9
257 -2 69 -7 190 -10 270 -7 204 -15 394 -21 540 -2 69 -7 175 -9 235 -4 121
-12 319 -20 490 -3 61 -7 166 -10 235 -2 69 -7 177 -10 240 -4 107 -8 202 -20
505 -3 66 -7 170 -10 230 -4 108 -10 239 -20 485 -3 69 -7 181 -10 250 -3 69
-8 179 -10 245 -2 66 -7 174 -10 240 -3 66 -8 174 -10 240 -2 66 -6 181 -10
255 -9 214 -15 377 -20 490 -2 58 -7 166 -10 240 -3 74 -8 198 -10 275 -3 77
-8 187 -10 245 -3 58 -7 161 -10 230 -7 181 -14 347 -20 495 -17 408 -18 424
-29 740 -3 77 -6 140 -6 140 0 0 -3 59 -6 130 -12 335 -9 306 -35 326 -13 10
-30 19 -36 19 -7 0 -13 4 -13 9 0 5 -10 13 -22 17 -13 3 -54 25 -93 48 -38 22
-72 41 -75 41 -3 0 -25 12 -50 27 -25 14 -108 60 -185 102 -77 41 -144 79
-150 83 -8 6 -226 116 -307 155 -12 5 -20 2 -27 -10z"/>
</g>
</svg>
